<svg width="170" height="60" viewBox="0 0 170 60" fill="none" xmlns="http://www.w3.org/2000/svg">
<g filter="url(#filter0_d_35_2445)">
<rect x="7" y="7" width="156" height="46" rx="5" fill="#9EA18E"/>
</g>
<path d="M50.4 36L54.736 24.8H56.496L60.8 36H58.96L56.4 29.248C56.368 29.1733 56.304 28.992 56.208 28.704C56.1227 28.416 56.0213 28.096 55.904 27.744C55.7867 27.392 55.68 27.072 55.584 26.784C55.488 26.4853 55.424 26.2933 55.392 26.208L55.76 26.192C55.696 26.3733 55.616 26.6027 55.52 26.88C55.4347 27.1573 55.3387 27.4507 55.232 27.76C55.136 28.0693 55.04 28.3627 54.944 28.64C54.848 28.9067 54.768 29.1307 54.704 29.312L52.16 36H50.4ZM52.32 33.216L52.96 31.552H58.048L58.784 33.216H52.32ZM65.6106 36.16C64.832 36.16 64.1333 35.968 63.5146 35.584C62.9066 35.2 62.4213 34.6773 62.0586 34.016C61.7066 33.3547 61.5306 32.6133 61.5306 31.792C61.5306 30.9707 61.7066 30.2293 62.0586 29.568C62.4213 28.9067 62.9066 28.384 63.5146 28C64.1333 27.616 64.832 27.424 65.6106 27.424C66.3573 27.424 67.0346 27.5787 67.6426 27.888C68.2613 28.1867 68.7306 28.5973 69.0506 29.12L68.1386 30.24C67.968 29.9947 67.7493 29.7707 67.4826 29.568C67.216 29.3653 66.9333 29.2053 66.6346 29.088C66.336 28.9707 66.048 28.912 65.7706 28.912C65.2586 28.912 64.8 29.04 64.3946 29.296C64 29.5413 63.6853 29.8827 63.4506 30.32C63.216 30.7573 63.0986 31.248 63.0986 31.792C63.0986 32.336 63.2213 32.8267 63.4666 33.264C63.712 33.6907 64.0373 34.032 64.4426 34.288C64.848 34.544 65.296 34.672 65.7866 34.672C66.0746 34.672 66.352 34.624 66.6186 34.528C66.896 34.432 67.1626 34.288 67.4186 34.096C67.6746 33.904 67.9146 33.6693 68.1386 33.392L69.0506 34.512C68.7093 34.992 68.2186 35.3867 67.5786 35.696C66.9493 36.0053 66.2933 36.16 65.6106 36.16ZM70.6051 36V24.16H72.2531V29.328L71.9651 29.52C72.0718 29.1467 72.2798 28.8053 72.5891 28.496C72.8985 28.176 73.2665 27.92 73.6931 27.728C74.1198 27.5253 74.5571 27.424 75.0051 27.424C75.6451 27.424 76.1785 27.552 76.6051 27.808C77.0318 28.0533 77.3518 28.432 77.5651 28.944C77.7785 29.456 77.8851 30.1013 77.8851 30.88V36H76.2371V30.992C76.2371 30.512 76.1731 30.1173 76.0451 29.808C75.9171 29.488 75.7198 29.2587 75.4531 29.12C75.1865 28.9707 74.8558 28.9067 74.4611 28.928C74.1411 28.928 73.8478 28.9813 73.5811 29.088C73.3145 29.184 73.0798 29.3227 72.8771 29.504C72.6851 29.6853 72.5305 29.8987 72.4131 30.144C72.3065 30.3787 72.2531 30.6347 72.2531 30.912V36H71.4371C71.2985 36 71.1598 36 71.0211 36C70.8825 36 70.7438 36 70.6051 36ZM84.0408 36.16C83.1768 36.16 82.4088 35.9787 81.7368 35.616C81.0754 35.2427 80.5528 34.736 80.1688 34.096C79.7954 33.456 79.6088 32.72 79.6088 31.888C79.6088 31.2267 79.7154 30.624 79.9288 30.08C80.1421 29.536 80.4354 29.0667 80.8088 28.672C81.1928 28.2667 81.6461 27.9573 82.1688 27.744C82.7021 27.52 83.2781 27.408 83.8968 27.408C84.4408 27.408 84.9474 27.5147 85.4168 27.728C85.8861 27.9307 86.2914 28.2133 86.6328 28.576C86.9848 28.9387 87.2514 29.3707 87.4328 29.872C87.6248 30.3627 87.7154 30.9013 87.7048 31.488L87.6888 32.192H80.8248L80.4568 30.88H86.2648L86.0248 31.152V30.768C85.9928 30.416 85.8754 30.1013 85.6728 29.824C85.4701 29.5467 85.2141 29.328 84.9048 29.168C84.5954 29.008 84.2594 28.928 83.8968 28.928C83.3208 28.928 82.8354 29.04 82.4408 29.264C82.0461 29.4773 81.7474 29.7973 81.5448 30.224C81.3421 30.64 81.2408 31.1573 81.2408 31.776C81.2408 32.3627 81.3634 32.8747 81.6088 33.312C81.8541 33.7387 82.2008 34.0693 82.6488 34.304C83.0968 34.5387 83.6141 34.656 84.2008 34.656C84.6168 34.656 85.0008 34.5867 85.3528 34.448C85.7154 34.3093 86.1048 34.0587 86.5208 33.696L87.3528 34.864C87.0968 35.12 86.7821 35.344 86.4088 35.536C86.0461 35.728 85.6568 35.8827 85.2408 36C84.8354 36.1067 84.4354 36.16 84.0408 36.16ZM90.5358 36V25.456H92.1838V36H90.5358ZM88.7918 29.2V27.6H94.1358V29.2H88.7918ZM99.4783 36.16C98.6143 36.16 97.8463 35.9787 97.1743 35.616C96.5129 35.2427 95.9903 34.736 95.6063 34.096C95.2329 33.456 95.0463 32.72 95.0463 31.888C95.0463 31.2267 95.1529 30.624 95.3663 30.08C95.5796 29.536 95.8729 29.0667 96.2463 28.672C96.6303 28.2667 97.0836 27.9573 97.6063 27.744C98.1396 27.52 98.7156 27.408 99.3343 27.408C99.8783 27.408 100.385 27.5147 100.854 27.728C101.324 27.9307 101.729 28.2133 102.07 28.576C102.422 28.9387 102.689 29.3707 102.87 29.872C103.062 30.3627 103.153 30.9013 103.142 31.488L103.126 32.192H96.2623L95.8943 30.88H101.702L101.462 31.152V30.768C101.43 30.416 101.313 30.1013 101.11 29.824C100.908 29.5467 100.652 29.328 100.342 29.168C100.033 29.008 99.6969 28.928 99.3343 28.928C98.7583 28.928 98.2729 29.04 97.8783 29.264C97.4836 29.4773 97.1849 29.7973 96.9823 30.224C96.7796 30.64 96.6783 31.1573 96.6783 31.776C96.6783 32.3627 96.8009 32.8747 97.0463 33.312C97.2916 33.7387 97.6383 34.0693 98.0863 34.304C98.5343 34.5387 99.0516 34.656 99.6383 34.656C100.054 34.656 100.438 34.5867 100.79 34.448C101.153 34.3093 101.542 34.0587 101.958 33.696L102.79 34.864C102.534 35.12 102.22 35.344 101.846 35.536C101.484 35.728 101.094 35.8827 100.678 36C100.273 36.1067 99.8729 36.16 99.4783 36.16ZM107.877 36.16C107.28 36.16 106.757 36.0213 106.309 35.744C105.872 35.4667 105.531 35.0773 105.285 34.576C105.051 34.0747 104.933 33.4773 104.933 32.784V27.6H106.581V32.336C106.581 32.8267 106.656 33.2533 106.805 33.616C106.965 33.968 107.189 34.24 107.477 34.432C107.776 34.624 108.133 34.72 108.549 34.72C108.859 34.72 109.141 34.672 109.397 34.576C109.653 34.4693 109.872 34.3253 110.053 34.144C110.245 33.9627 110.395 33.744 110.501 33.488C110.608 33.232 110.661 32.9547 110.661 32.656V27.6H112.309V36H110.661V34.24L110.949 34.048C110.821 34.4427 110.603 34.8 110.293 35.12C109.995 35.44 109.637 35.696 109.221 35.888C108.805 36.0693 108.357 36.16 107.877 36.16ZM114.621 36V27.6H116.285V30.24L116.125 29.6C116.242 29.1947 116.439 28.8267 116.717 28.496C117.005 28.1653 117.33 27.904 117.693 27.712C118.066 27.52 118.45 27.424 118.845 27.424C119.026 27.424 119.197 27.44 119.357 27.472C119.527 27.504 119.661 27.5413 119.757 27.584L119.325 29.376C119.197 29.3227 119.053 29.28 118.893 29.248C118.743 29.2053 118.594 29.184 118.445 29.184C118.157 29.184 117.879 29.2427 117.613 29.36C117.357 29.4667 117.127 29.6213 116.925 29.824C116.733 30.016 116.578 30.2453 116.461 30.512C116.343 30.768 116.285 31.0507 116.285 31.36V36H114.621Z" fill="white"/>
<defs>
<filter id="filter0_d_35_2445" x="0" y="0" width="170" height="60" filterUnits="userSpaceOnUse" color-interpolation-filters="sRGB">
<feFlood flood-opacity="0" result="BackgroundImageFix"/>
<feColorMatrix in="SourceAlpha" type="matrix" values="0 0 0 0 0 0 0 0 0 0 0 0 0 0 0 0 0 0 127 0" result="hardAlpha"/>
<feOffset/>
<feGaussianBlur stdDeviation="3.5"/>
<feComposite in2="hardAlpha" operator="out"/>
<feColorMatrix type="matrix" values="0 0 0 0 0.383702 0 0 0 0 0.390988 0 0 0 0 0.344847 0 0 0 0.5 0"/>
<feBlend mode="normal" in2="BackgroundImageFix" result="effect1_dropShadow_35_2445"/>
<feBlend mode="normal" in="SourceGraphic" in2="effect1_dropShadow_35_2445" result="shape"/>
</filter>
</defs>
</svg>
