<svg width="113" height="38" viewBox="0 0 113 38" fill="none" xmlns="http://www.w3.org/2000/svg">
<path d="M27.8617 12.7794C28.1014 11.2474 28.0289 9.67952 27.6488 8.17894C27.2688 6.67835 26.5898 5.27905 25.6566 4.07303C24.7234 2.86701 23.5571 1.88161 22.2343 1.1816C20.9116 0.481599 19.4623 0.0828565 17.982 0.0115943C16.5016 -0.059668 15.0236 0.198164 13.6451 0.768138C12.2667 1.33811 11.019 2.20731 9.98415 3.31859C8.94929 4.42987 8.15071 5.75805 7.64089 7.21579C7.13108 8.67354 6.92158 10.2278 7.02619 11.7765L8.89671 11.6378C8.81079 10.3657 8.98287 9.08902 9.40163 7.89162C9.8204 6.69421 10.4764 5.60323 11.3264 4.69042C12.1764 3.7776 13.2013 3.06363 14.3336 2.59545C15.4658 2.12727 16.6799 1.91548 17.8959 1.97402C19.1119 2.03255 20.3023 2.36008 21.3888 2.93507C22.4753 3.51006 23.4334 4.31949 24.1999 5.31012C24.9665 6.30075 25.5242 7.45016 25.8363 8.68275C26.1485 9.91534 26.2081 11.2032 26.0112 12.4617L27.8617 12.7794Z" fill="url(#paint0_linear_35_2439)"/>
<ellipse cx="16.5" cy="23" rx="16.5" ry="15" fill="#9EA18E"/>
<path d="M8.004 31.572C7.02133 31.572 6.32467 31.2933 5.914 30.736C5.518 30.164 5.32 29.306 5.32 28.162C5.32 27.4287 5.43733 26.3287 5.672 24.862C5.92133 23.3807 6.266 21.4227 6.706 18.988L5.54 16.634C6.22933 16.194 6.96267 15.82 7.74 15.512C8.51733 15.1893 9.29467 15.028 10.072 15.028C10.776 15.028 11.392 15.138 11.92 15.358C12.4627 15.5633 12.932 15.9667 13.328 16.568C13.724 17.1547 14.054 18.02 14.318 19.164C14.5967 20.2933 14.824 21.782 15 23.63H15.264C15.616 22.618 16.056 21.606 16.584 20.594C17.112 19.582 17.7427 18.658 18.476 17.822C19.2093 16.986 20.06 16.3187 21.028 15.82C22.0107 15.3067 23.1253 15.05 24.372 15.05C25.0613 15.05 25.516 15.2553 25.736 15.666C25.956 16.062 26.066 16.5387 26.066 17.096C26.066 17.3307 26.022 17.712 25.934 18.24C25.8607 18.7533 25.758 19.3547 25.626 20.044C25.494 20.7187 25.3547 21.43 25.208 22.178C25.076 22.9113 24.944 23.63 24.812 24.334C24.68 25.0233 24.57 25.6393 24.482 26.182C24.4087 26.71 24.372 27.1133 24.372 27.392C24.372 28.14 24.4233 28.7707 24.526 29.284C24.6433 29.7973 24.812 30.23 25.032 30.582C24.152 31.242 23.2427 31.572 22.304 31.572C21.3213 31.572 20.6247 31.2933 20.214 30.736C19.818 30.164 19.62 29.306 19.62 28.162C19.62 27.5313 19.708 26.6293 19.884 25.456C20.0747 24.2827 20.3313 22.772 20.654 20.924H20.302C19.6713 21.76 19.1213 22.6987 18.652 23.74C18.1827 24.7667 17.8087 25.7933 17.53 26.82C17.266 27.832 17.09 28.734 17.002 29.526C16.6353 29.8633 16.232 30.12 15.792 30.296C15.3667 30.4573 14.9413 30.538 14.516 30.538C14.164 30.538 13.834 30.406 13.526 30.142C13.218 29.8633 12.932 29.3793 12.668 28.69C12.404 28.0007 12.1693 27.0327 11.964 25.786C11.7733 24.5247 11.6193 22.904 11.502 20.924H11.15C10.9593 21.76 10.7833 22.618 10.622 23.498C10.4607 24.3633 10.3287 25.148 10.226 25.852C10.1233 26.556 10.072 27.0693 10.072 27.392C10.072 28.14 10.1233 28.7707 10.226 29.284C10.3433 29.7973 10.512 30.23 10.732 30.582C9.852 31.242 8.94267 31.572 8.004 31.572ZM31.7889 31.55C30.9676 31.55 30.2416 31.3373 29.6109 30.912C28.9949 30.4867 28.5183 29.8853 28.1809 29.108C27.8436 28.3307 27.6749 27.4213 27.6749 26.38C27.6749 25.1627 27.8876 24.0333 28.3129 22.992C28.7529 21.9507 29.3543 21.0413 30.1169 20.264C30.8943 19.4867 31.8036 18.8853 32.8449 18.46C33.8863 18.02 35.0156 17.8 36.2329 17.8C36.5849 17.8 36.8856 17.8147 37.1349 17.844C37.3989 17.8587 37.6776 17.9027 37.9709 17.976C38.0589 18.3867 38.1103 18.746 38.1249 19.054C38.4623 18.834 38.8363 18.6653 39.2469 18.548C39.6576 18.416 40.0389 18.35 40.3909 18.35C41.4616 18.35 41.9969 18.9293 41.9969 20.088C41.9969 20.4693 41.9236 20.99 41.7769 21.65C41.6449 22.2953 41.4836 23.014 41.2929 23.806C41.1169 24.5833 40.9556 25.3827 40.8089 26.204C40.6769 27.0107 40.6109 27.766 40.6109 28.47C40.6109 29.4233 40.8383 30.0907 41.2929 30.472C40.4716 31.1907 39.5989 31.55 38.6749 31.55C37.8243 31.55 37.1936 31.286 36.7829 30.758C36.3869 30.23 36.1889 29.4087 36.1889 28.294L35.9689 28.184C35.5729 29.24 35.0009 30.0687 34.2529 30.67C33.5196 31.2567 32.6983 31.55 31.7889 31.55ZM33.5269 27.546C34.0989 27.546 34.6563 27.3407 35.1989 26.93C35.7416 26.5193 36.1963 25.9547 36.5629 25.236C36.6216 24.664 36.6803 24.1287 36.7389 23.63C36.8123 23.1167 36.9003 22.574 37.0029 22.002C37.1203 21.43 37.2596 20.7553 37.4209 19.978C36.6729 19.978 35.9616 20.1247 35.2869 20.418C34.6269 20.6967 34.0329 21.0853 33.5049 21.584C32.9769 22.0827 32.5589 22.6547 32.2509 23.3C31.9576 23.9307 31.8109 24.598 31.8109 25.302C31.8109 26.0207 31.9576 26.578 32.2509 26.974C32.5589 27.3553 32.9843 27.546 33.5269 27.546ZM46.6901 31.55C45.7955 31.55 45.1575 31.3153 44.7761 30.846C44.3948 30.3767 44.2041 29.702 44.2041 28.822C44.2041 28.514 44.2481 28.0447 44.3361 27.414C44.4241 26.7687 44.5341 26.0573 44.6661 25.28C44.8128 24.488 44.9668 23.696 45.1281 22.904C45.2895 22.112 45.4435 21.408 45.5901 20.792L44.4461 19.032C45.2088 18.6947 45.9128 18.4087 46.5581 18.174C47.2181 17.9247 47.8048 17.8 48.3181 17.8C48.6995 17.8 48.9781 17.932 49.1541 18.196C49.3301 18.46 49.4181 18.7973 49.4181 19.208C49.4181 19.6773 49.3375 20.2053 49.1761 20.792C49.0148 21.364 48.8535 21.9067 48.6921 22.42L48.9121 22.53C49.4255 21.0193 50.0048 19.8533 50.6501 19.032C51.3101 18.2107 52.0435 17.8 52.8501 17.8C53.3781 17.8 53.8035 17.9173 54.1261 18.152C54.4488 18.372 54.6835 18.6507 54.8301 18.988C54.9915 19.3107 55.0721 19.626 55.0721 19.934C55.0721 20.418 54.9475 20.8873 54.6981 21.342C54.4635 21.782 54.0821 22.1487 53.5541 22.442C53.0261 22.7207 52.3295 22.86 51.4641 22.86C51.1268 22.86 50.7968 22.9333 50.4741 23.08C50.1515 23.2267 49.8581 23.5053 49.5941 23.916C49.3301 24.312 49.1175 24.8767 48.9561 25.61C48.8095 26.3433 48.7361 27.2967 48.7361 28.47C48.7361 29.3793 48.8901 30.0467 49.1981 30.472C48.2888 31.1907 47.4528 31.55 46.6901 31.55ZM58.5547 31.55C57.66 31.55 57.022 31.2713 56.6407 30.714C56.2593 30.1567 56.0687 29.306 56.0687 28.162C56.0687 27.8393 56.1053 27.3627 56.1787 26.732C56.2667 26.1013 56.3767 25.3827 56.5087 24.576C56.6407 23.7693 56.7873 22.9333 56.9487 22.068C57.11 21.188 57.264 20.3373 57.4107 19.516C57.5573 18.6947 57.6893 17.9613 57.8067 17.316L56.5747 15.556C57.352 15.1013 58.0927 14.72 58.7967 14.412C59.5007 14.104 60.2047 13.95 60.9087 13.95C61.5247 13.95 61.95 14.0747 62.1847 14.324C62.434 14.5587 62.5587 14.9547 62.5587 15.512C62.5587 15.996 62.5 16.59 62.3827 17.294C62.2653 17.998 62.1187 18.7753 61.9427 19.626C61.7667 20.462 61.5833 21.3273 61.3927 22.222C61.202 23.102 61.0407 23.96 60.9087 24.796L62.2947 23.564C62.8227 23.0947 63.3067 22.662 63.7467 22.266C64.2013 21.87 64.5607 21.474 64.8247 21.078C65.1033 20.6673 65.2427 20.2273 65.2427 19.758C65.2427 19.5527 65.228 19.3693 65.1987 19.208C65.1693 19.0467 65.1253 18.8927 65.0667 18.746C66.108 18.1153 67.0907 17.8 68.0147 17.8C68.6307 17.8 69.122 17.998 69.4887 18.394C69.8553 18.7753 70.0387 19.2813 70.0387 19.912C70.0387 20.5133 69.8627 21.0853 69.5107 21.628C69.1733 22.1707 68.7333 22.662 68.1907 23.102C67.6627 23.5273 67.12 23.9013 66.5627 24.224C66.8853 25.2507 67.2593 26.226 67.6847 27.15C68.1247 28.074 68.5647 28.8513 69.0047 29.482C69.4447 30.098 69.8187 30.4867 70.1267 30.648C69.8333 30.956 69.4227 31.1833 68.8947 31.33C68.3667 31.4767 67.868 31.55 67.3987 31.55C66.4893 31.55 65.7267 31.242 65.1107 30.626C64.4947 30.01 63.9373 28.998 63.4387 27.59L62.8887 26.028L60.6227 27.15C60.608 27.2673 60.6007 27.392 60.6007 27.524C60.6007 27.6413 60.6007 27.7587 60.6007 27.876C60.6007 28.448 60.652 28.9613 60.7547 29.416C60.872 29.856 61.048 30.208 61.2827 30.472C60.256 31.1907 59.3467 31.55 58.5547 31.55ZM77.4109 31.55C76.0469 31.55 74.8956 31.308 73.9569 30.824C73.0182 30.34 72.3069 29.6653 71.8229 28.8C71.3536 27.92 71.1189 26.908 71.1189 25.764C71.1189 24.576 71.3316 23.498 71.7569 22.53C72.1969 21.5473 72.8056 20.704 73.5829 20C74.3602 19.296 75.2622 18.7533 76.2889 18.372C77.3302 17.9907 78.4522 17.8 79.6549 17.8C81.0776 17.8 82.1262 18.1153 82.8009 18.746C83.4756 19.3767 83.8129 20.1687 83.8129 21.122C83.8129 21.9433 83.5416 22.7207 82.9989 23.454C82.4709 24.1727 81.6129 24.7593 80.4249 25.214C79.2369 25.654 77.6529 25.8813 75.6729 25.896C75.7169 26.8347 75.9296 27.5753 76.3109 28.118C76.7069 28.646 77.1982 28.91 77.7849 28.91C78.0782 28.91 78.3862 28.844 78.7089 28.712C79.0316 28.5653 79.3029 28.316 79.5229 27.964C79.7429 27.5973 79.8529 27.0987 79.8529 26.468C80.8502 26.468 81.6349 26.578 82.2069 26.798C82.7789 27.018 83.0649 27.414 83.0649 27.986C83.0649 28.514 82.8376 29.0567 82.3829 29.614C81.9282 30.1567 81.2756 30.6187 80.4249 31C79.5889 31.3667 78.5842 31.55 77.4109 31.55ZM75.8709 24.136C76.9416 24.048 77.7996 23.85 78.4449 23.542C79.0902 23.234 79.5596 22.882 79.8529 22.486C80.1462 22.09 80.2929 21.7233 80.2929 21.386C80.2929 21.0927 80.2049 20.8507 80.0289 20.66C79.8529 20.4693 79.6036 20.374 79.2809 20.374C78.7529 20.374 78.2616 20.5573 77.8069 20.924C77.3522 21.2907 76.9562 21.7673 76.6189 22.354C76.2962 22.926 76.0469 23.52 75.8709 24.136ZM89.5819 31.55C88.6432 31.55 87.9759 31.2713 87.5799 30.714C87.1839 30.1567 86.9859 29.306 86.9859 28.162C86.9859 27.8393 87.0226 27.3847 87.0959 26.798C87.1692 26.1967 87.2646 25.5293 87.3819 24.796C87.5139 24.0627 87.6386 23.3367 87.7559 22.618C87.4479 22.6767 87.1472 22.7427 86.8539 22.816C86.5752 22.8893 86.3112 22.97 86.0619 23.058C86.0032 22.838 85.9592 22.618 85.9299 22.398C85.9152 22.178 85.9079 22.0167 85.9079 21.914C85.9079 21.1513 86.1279 20.6013 86.5679 20.264C87.0226 19.912 87.5652 19.736 88.1959 19.736C88.1959 19.3987 88.1519 19.0247 88.0639 18.614C87.9759 18.2033 87.8219 17.7487 87.6019 17.25C88.2179 16.7953 88.8339 16.414 89.4499 16.106C90.0659 15.798 90.7479 15.644 91.4959 15.644C92.1412 15.644 92.5886 15.7687 92.8379 16.018C93.0872 16.2527 93.2119 16.6487 93.2119 17.206C93.2119 17.4847 93.1826 17.8147 93.1239 18.196C93.0652 18.5773 92.9919 18.9953 92.9039 19.45C93.2266 19.406 93.5346 19.3547 93.8279 19.296C94.1212 19.2227 94.4072 19.1493 94.6859 19.076C94.7446 19.2373 94.7812 19.406 94.7959 19.582C94.8252 19.7433 94.8399 19.9047 94.8399 20.066C94.8399 20.6527 94.6566 21.166 94.2899 21.606C93.9379 22.0313 93.3879 22.244 92.6399 22.244H92.3099C92.1046 23.1827 91.9212 24.1433 91.7599 25.126C91.5986 26.1087 91.5179 27.0253 91.5179 27.876C91.5179 28.448 91.5692 28.9613 91.6719 29.416C91.7892 29.856 91.9652 30.208 92.1999 30.472C91.3786 31.1907 90.5059 31.55 89.5819 31.55Z" fill="black"/>
<path d="M99.5608 36.17C98.5488 36.17 97.6981 35.95 97.0088 35.51C96.3194 35.07 95.9748 34.454 95.9748 33.662C95.9748 33.3393 96.0408 32.9947 96.1728 32.628C96.3048 32.2613 96.5101 31.8727 96.7888 31.462C97.1261 31.946 97.5294 32.3127 97.9988 32.562C98.4681 32.826 98.9448 32.958 99.4288 32.958C100.001 32.958 100.551 32.7673 101.079 32.386C101.607 32.0047 102.032 31.396 102.355 30.56C101.988 30.692 101.643 30.7873 101.321 30.846C100.998 30.9047 100.69 30.934 100.397 30.934C99.6341 30.934 99.0181 30.736 98.5488 30.34C98.0794 29.9293 97.8081 29.3427 97.7348 28.58C97.6321 27.612 97.5661 26.6073 97.5368 25.566C97.5074 24.5247 97.4488 23.5787 97.3608 22.728C97.2581 21.7307 97.0454 20.902 96.7228 20.242C96.4001 19.582 96.0261 19.0833 95.6008 18.746C95.9528 18.4233 96.3194 18.1887 96.7008 18.042C97.0968 17.8807 97.5954 17.8 98.1968 17.8C98.9301 17.8 99.5241 18.02 99.9788 18.46C100.448 18.9 100.807 19.5233 101.057 20.33C101.306 21.122 101.475 22.0533 101.563 23.124C101.665 24.18 101.717 25.3313 101.717 26.578C101.717 26.754 101.709 27.0253 101.695 27.392C101.695 27.7587 101.68 28.1253 101.651 28.492H102.927C103.161 27.8467 103.411 27.1573 103.675 26.424C103.939 25.6907 104.181 24.95 104.401 24.202C104.635 23.4393 104.826 22.7133 104.973 22.024C105.119 21.32 105.193 20.6967 105.193 20.154C105.193 19.8313 105.156 19.56 105.083 19.34C105.024 19.12 104.951 18.922 104.863 18.746C105.376 18.4233 105.882 18.1887 106.381 18.042C106.879 17.8807 107.327 17.8 107.723 17.8C108.397 17.8 108.889 18.0273 109.197 18.482C109.519 18.9367 109.681 19.5307 109.681 20.264C109.681 20.8067 109.6 21.4373 109.439 22.156C109.277 22.86 109.072 23.5933 108.823 24.356C108.588 25.104 108.346 25.8153 108.097 26.49C107.862 27.1647 107.664 27.7367 107.503 28.206C106.799 30.23 106.007 31.8213 105.127 32.98C104.261 34.1387 103.352 34.96 102.399 35.444C101.46 35.928 100.514 36.17 99.5608 36.17Z" fill="#F7DA7B"/>
<path d="M10.004 31.572C9.02133 31.572 8.32467 31.2933 7.914 30.736C7.518 30.164 7.32 29.306 7.32 28.162C7.32 27.4287 7.43733 26.3287 7.672 24.862C7.92133 23.3807 8.266 21.4227 8.706 18.988L7.54 16.634C8.22933 16.194 8.96267 15.82 9.74 15.512C10.5173 15.1893 11.2947 15.028 12.072 15.028C12.776 15.028 13.392 15.138 13.92 15.358C14.4627 15.5633 14.932 15.9667 15.328 16.568C15.724 17.1547 16.054 18.02 16.318 19.164C16.5967 20.2933 16.824 21.782 17 23.63H17.264C17.616 22.618 18.056 21.606 18.584 20.594C19.112 19.582 19.7427 18.658 20.476 17.822C21.2093 16.986 22.06 16.3187 23.028 15.82C24.0107 15.3067 25.1253 15.05 26.372 15.05C27.0613 15.05 27.516 15.2553 27.736 15.666C27.956 16.062 28.066 16.5387 28.066 17.096C28.066 17.3307 28.022 17.712 27.934 18.24C27.8607 18.7533 27.758 19.3547 27.626 20.044C27.494 20.7187 27.3547 21.43 27.208 22.178C27.076 22.9113 26.944 23.63 26.812 24.334C26.68 25.0233 26.57 25.6393 26.482 26.182C26.4087 26.71 26.372 27.1133 26.372 27.392C26.372 28.14 26.4233 28.7707 26.526 29.284C26.6433 29.7973 26.812 30.23 27.032 30.582C26.152 31.242 25.2427 31.572 24.304 31.572C23.3213 31.572 22.6247 31.2933 22.214 30.736C21.818 30.164 21.62 29.306 21.62 28.162C21.62 27.5313 21.708 26.6293 21.884 25.456C22.0747 24.2827 22.3313 22.772 22.654 20.924H22.302C21.6713 21.76 21.1213 22.6987 20.652 23.74C20.1827 24.7667 19.8087 25.7933 19.53 26.82C19.266 27.832 19.09 28.734 19.002 29.526C18.6353 29.8633 18.232 30.12 17.792 30.296C17.3667 30.4573 16.9413 30.538 16.516 30.538C16.164 30.538 15.834 30.406 15.526 30.142C15.218 29.8633 14.932 29.3793 14.668 28.69C14.404 28.0007 14.1693 27.0327 13.964 25.786C13.7733 24.5247 13.6193 22.904 13.502 20.924H13.15C12.9593 21.76 12.7833 22.618 12.622 23.498C12.4607 24.3633 12.3287 25.148 12.226 25.852C12.1233 26.556 12.072 27.0693 12.072 27.392C12.072 28.14 12.1233 28.7707 12.226 29.284C12.3433 29.7973 12.512 30.23 12.732 30.582C11.852 31.242 10.9427 31.572 10.004 31.572Z" fill="white"/>
<defs>
<linearGradient id="paint0_linear_35_2439" x1="17.5" y1="0" x2="17.5" y2="22" gradientUnits="userSpaceOnUse">
<stop stop-color="#9EA18E"/>
<stop offset="0.394231" stop-color="#626458"/>
<stop offset="1" stop-color="#3A3B34"/>
</linearGradient>
</defs>
</svg>
